<svg preserveAspectRatio="xMinYMin" viewBox="0 0 190 48" fill="none" xmlns="http://www.w3.org/2000/svg">
<path d="M0.5 2C0.5 1.17157 1.17157 0.5 2 0.5H188C188.828 0.5 189.5 1.17157 189.5 2V46C189.5 46.8284 188.828 47.5 188 47.5H2C1.17157 47.5 0.5 46.8284 0.5 46V2Z" fill="black" stroke="black"/>
<path d="M41.1937 15.9231C42.5074 15.9231 44.1542 15.0076 45.1349 13.787C46.023 12.6809 46.6706 11.136 46.6706 9.59123C46.6706 9.38144 46.6521 9.17165 46.6151 9C45.1534 9.05722 43.3956 10.0108 42.3409 11.2886C41.5082 12.2613 40.7496 13.787 40.7496 15.3509C40.7496 15.5798 40.7866 15.8086 40.8051 15.8849C40.8976 15.904 41.0456 15.9231 41.1937 15.9231ZM36.5678 39C38.3627 39 39.1583 37.7603 41.3972 37.7603C43.6731 37.7603 44.1727 38.9619 46.1711 38.9619C48.1324 38.9619 49.4461 37.0928 50.6859 35.2619C52.0736 33.164 52.6472 31.1043 52.6842 31.0089C52.5547 30.9708 48.7985 29.3878 48.7985 24.9441C48.7985 21.0915 51.759 19.356 51.9256 19.2225C49.9642 16.3236 46.9852 16.2473 46.1711 16.2473C43.9692 16.2473 42.1743 17.6205 41.0456 17.6205C39.8244 17.6205 38.2146 16.3236 36.3088 16.3236C32.6822 16.3236 29 19.4132 29 25.2492C29 28.8729 30.3692 32.7063 32.053 35.1856C33.4963 37.2835 34.7545 39 36.5678 39Z" fill="white"/>
<path d="M76.68 32L75.38 28.22H70L68.72 32H66L71.24 17.66H74.16L79.4 32H76.68ZM73.48 22.34C73.4267 22.1533 73.3467 21.9 73.24 21.58C73.1333 21.26 73.0267 20.9333 72.92 20.6C72.8267 20.2533 72.7533 19.9667 72.7 19.74C72.6333 20.0067 72.5467 20.3133 72.44 20.66C72.3467 21.0067 72.2533 21.3333 72.16 21.64C72.08 21.9467 72.0133 22.18 71.96 22.34L70.7 26.02H74.72L73.48 22.34ZM86.738 20.96C88.0046 20.96 89.0246 21.4333 89.798 22.38C90.5713 23.3133 90.958 24.7067 90.958 26.56C90.958 27.7867 90.778 28.82 90.418 29.66C90.058 30.5 89.558 31.1333 88.918 31.56C88.278 31.9867 87.5313 32.2 86.678 32.2C86.158 32.2 85.698 32.1333 85.298 32C84.898 31.8533 84.558 31.6733 84.278 31.46C83.998 31.2333 83.758 30.9933 83.558 30.74H83.398C83.4513 30.98 83.4913 31.2533 83.518 31.56C83.5446 31.8533 83.558 32.1333 83.558 32.4V36.8H81.038V21.16H83.078L83.438 22.6H83.558C83.758 22.2933 83.998 22.02 84.278 21.78C84.5713 21.5267 84.918 21.3267 85.318 21.18C85.7313 21.0333 86.2046 20.96 86.738 20.96ZM86.018 23C85.4313 23 84.958 23.12 84.598 23.36C84.238 23.5867 83.978 23.94 83.818 24.42C83.658 24.9 83.5713 25.5 83.558 26.22V26.54C83.558 27.3133 83.6313 27.9667 83.778 28.5C83.938 29.0333 84.198 29.44 84.558 29.72C84.9313 30 85.4313 30.14 86.058 30.14C86.5913 30.14 87.0246 29.9933 87.358 29.7C87.7046 29.4067 87.958 28.9933 88.118 28.46C88.2913 27.9133 88.378 27.2667 88.378 26.52C88.378 25.4 88.1846 24.5333 87.798 23.92C87.4246 23.3067 86.8313 23 86.018 23ZM99.2575 20.96C100.524 20.96 101.544 21.4333 102.318 22.38C103.091 23.3133 103.478 24.7067 103.478 26.56C103.478 27.7867 103.298 28.82 102.938 29.66C102.578 30.5 102.078 31.1333 101.438 31.56C100.798 31.9867 100.051 32.2 99.1975 32.2C98.6775 32.2 98.2175 32.1333 97.8175 32C97.4175 31.8533 97.0775 31.6733 96.7975 31.46C96.5175 31.2333 96.2775 30.9933 96.0775 30.74H95.9175C95.9708 30.98 96.0108 31.2533 96.0375 31.56C96.0642 31.8533 96.0775 32.1333 96.0775 32.4V36.8H93.5575V21.16H95.5975L95.9575 22.6H96.0775C96.2775 22.2933 96.5175 22.02 96.7975 21.78C97.0908 21.5267 97.4375 21.3267 97.8375 21.18C98.2508 21.0333 98.7242 20.96 99.2575 20.96ZM98.5375 23C97.9508 23 97.4775 23.12 97.1175 23.36C96.7575 23.5867 96.4975 23.94 96.3375 24.42C96.1775 24.9 96.0908 25.5 96.0775 26.22V26.54C96.0775 27.3133 96.1508 27.9667 96.2975 28.5C96.4575 29.0333 96.7175 29.44 97.0775 29.72C97.4508 30 97.9508 30.14 98.5775 30.14C99.1108 30.14 99.5442 29.9933 99.8775 29.7C100.224 29.4067 100.478 28.9933 100.638 28.46C100.811 27.9133 100.898 27.2667 100.898 26.52C100.898 25.4 100.704 24.5333 100.318 23.92C99.9442 23.3067 99.3508 23 98.5375 23ZM119.812 28.1C119.812 28.94 119.606 29.6667 119.192 30.28C118.779 30.8933 118.179 31.3667 117.392 31.7C116.619 32.0333 115.692 32.2 114.612 32.2C114.092 32.2 113.592 32.1667 113.112 32.1C112.646 32.0467 112.199 31.96 111.772 31.84C111.359 31.72 110.972 31.5733 110.612 31.4V29C111.212 29.2667 111.872 29.5133 112.592 29.74C113.312 29.9533 114.046 30.06 114.792 30.06C115.366 30.06 115.832 29.9867 116.192 29.84C116.566 29.68 116.839 29.4667 117.012 29.2C117.186 28.92 117.272 28.6 117.272 28.24C117.272 27.84 117.159 27.5 116.932 27.22C116.706 26.94 116.372 26.68 115.932 26.44C115.492 26.2 114.946 25.9467 114.292 25.68C113.852 25.4933 113.419 25.2867 112.992 25.06C112.579 24.82 112.206 24.5333 111.872 24.2C111.539 23.8667 111.272 23.4733 111.072 23.02C110.872 22.5667 110.772 22.0333 110.772 21.42C110.772 20.6067 110.966 19.9067 111.352 19.32C111.752 18.7333 112.306 18.2867 113.012 17.98C113.732 17.6733 114.566 17.52 115.512 17.52C116.272 17.52 116.986 17.6 117.652 17.76C118.319 17.92 118.979 18.1467 119.632 18.44L118.812 20.5C118.226 20.2467 117.659 20.0467 117.112 19.9C116.566 19.7533 116.006 19.68 115.432 19.68C114.979 19.68 114.592 19.7533 114.272 19.9C113.952 20.0333 113.712 20.2267 113.552 20.48C113.392 20.7333 113.312 21.0267 113.312 21.36C113.312 21.7467 113.412 22.0733 113.612 22.34C113.812 22.6067 114.119 22.86 114.532 23.1C114.959 23.3267 115.506 23.5867 116.172 23.88C116.946 24.2133 117.599 24.56 118.132 24.92C118.666 25.28 119.079 25.7133 119.372 26.22C119.666 26.7267 119.812 27.3533 119.812 28.1ZM126.468 30.18C126.788 30.18 127.095 30.1533 127.388 30.1C127.682 30.0333 127.955 29.96 128.208 29.88V31.76C127.942 31.88 127.595 31.98 127.168 32.06C126.742 32.1533 126.295 32.2 125.828 32.2C125.215 32.2 124.655 32.1 124.148 31.9C123.655 31.6867 123.255 31.3267 122.948 30.82C122.655 30.3133 122.508 29.6067 122.508 28.7V23.06H121.048V21.96L122.648 21.08L123.448 18.78H125.028V21.16H128.108V23.06H125.028V28.68C125.028 29.1867 125.162 29.5667 125.428 29.82C125.695 30.06 126.042 30.18 126.468 30.18ZM140.073 26.56C140.073 27.4667 139.953 28.2667 139.713 28.96C139.473 29.6533 139.127 30.2467 138.673 30.74C138.233 31.22 137.687 31.5867 137.033 31.84C136.393 32.08 135.68 32.2 134.893 32.2C134.147 32.2 133.46 32.08 132.833 31.84C132.207 31.5867 131.66 31.22 131.193 30.74C130.74 30.2467 130.387 29.6533 130.133 28.96C129.88 28.2667 129.753 27.4667 129.753 26.56C129.753 25.36 129.96 24.3467 130.373 23.52C130.787 22.68 131.38 22.0467 132.153 21.62C132.94 21.18 133.867 20.96 134.933 20.96C135.947 20.96 136.833 21.18 137.593 21.62C138.367 22.0467 138.973 22.68 139.413 23.52C139.853 24.3467 140.073 25.36 140.073 26.56ZM132.333 26.56C132.333 27.32 132.42 27.9733 132.593 28.52C132.78 29.0533 133.06 29.46 133.433 29.74C133.82 30.02 134.313 30.16 134.913 30.16C135.527 30.16 136.02 30.02 136.393 29.74C136.78 29.46 137.06 29.0533 137.233 28.52C137.407 27.9733 137.493 27.32 137.493 26.56C137.493 25.7867 137.4 25.14 137.213 24.62C137.04 24.0867 136.76 23.6867 136.373 23.42C136 23.14 135.513 23 134.913 23C134.007 23 133.347 23.3067 132.933 23.92C132.533 24.5333 132.333 25.4133 132.333 26.56ZM148.359 20.96C148.519 20.96 148.705 20.9667 148.919 20.98C149.132 20.9933 149.312 21.02 149.459 21.06L149.239 23.4C149.119 23.3733 148.959 23.3533 148.759 23.34C148.572 23.3133 148.405 23.3 148.259 23.3C147.859 23.3 147.472 23.3667 147.099 23.5C146.739 23.62 146.412 23.8067 146.119 24.06C145.839 24.3 145.612 24.6133 145.439 25C145.279 25.3867 145.199 25.8467 145.199 26.38V32H142.679V21.16H144.619L144.979 23.04H145.099C145.312 22.6533 145.579 22.3067 145.899 22C146.219 21.68 146.585 21.4267 146.999 21.24C147.425 21.0533 147.879 20.96 148.359 20.96ZM155.437 20.96C156.41 20.96 157.244 21.16 157.937 21.56C158.644 21.9467 159.19 22.5067 159.577 23.24C159.964 23.96 160.157 24.84 160.157 25.88V27.16H152.997C153.024 28.1467 153.297 28.9133 153.817 29.46C154.337 29.9933 155.057 30.26 155.977 30.26C156.684 30.26 157.31 30.1933 157.857 30.06C158.417 29.9133 158.99 29.7067 159.577 29.44V31.46C159.044 31.7133 158.49 31.9 157.917 32.02C157.344 32.14 156.657 32.2 155.857 32.2C154.804 32.2 153.864 32 153.037 31.6C152.224 31.1867 151.584 30.5667 151.117 29.74C150.664 28.9133 150.437 27.8867 150.437 26.66C150.437 25.42 150.644 24.38 151.057 23.54C151.484 22.6867 152.07 22.0467 152.817 21.62C153.564 21.18 154.437 20.96 155.437 20.96ZM155.437 22.82C154.77 22.82 154.224 23.04 153.797 23.48C153.384 23.9067 153.137 24.5467 153.057 25.4H157.717C157.717 24.8933 157.63 24.4467 157.457 24.06C157.297 23.6733 157.05 23.3733 156.717 23.16C156.384 22.9333 155.957 22.82 155.437 22.82Z" fill="white"/>
</svg>
