<svg preserveAspectRatio="xMinYMin" viewBox="0 0 190 48" fill="none" xmlns="http://www.w3.org/2000/svg">
<path d="M1 2C1 1.44772 1.44772 1 2 1H188C188.552 1 189 1.44772 189 2V46C189 46.5523 188.552 47 188 47H2C1.44771 47 1 46.5523 1 46V2Z" fill="white" stroke="black" stroke-width="2"/>
<path d="M61.56 24.16H66.96V31.42C66.2 31.6733 65.42 31.8667 64.62 32C63.82 32.1333 62.9133 32.2 61.9 32.2C60.46 32.2 59.24 31.9133 58.24 31.34C57.24 30.7667 56.48 29.9333 55.96 28.84C55.44 27.7467 55.18 26.4133 55.18 24.84C55.18 23.3467 55.4733 22.0533 56.06 20.96C56.6467 19.8667 57.4867 19.02 58.58 18.42C59.6867 17.82 61.0333 17.52 62.62 17.52C63.3933 17.52 64.14 17.6 64.86 17.76C65.5933 17.9067 66.26 18.1133 66.86 18.38L65.98 20.48C65.5267 20.2533 65 20.0667 64.4 19.92C63.8133 19.76 63.2 19.68 62.56 19.68C61.5867 19.68 60.7467 19.8933 60.04 20.32C59.3333 20.7467 58.7867 21.3533 58.4 22.14C58.0267 22.9133 57.84 23.8267 57.84 24.88C57.84 25.8933 57.9867 26.7933 58.28 27.58C58.5733 28.3533 59.04 28.96 59.68 29.4C60.32 29.8267 61.1533 30.04 62.18 30.04C62.5267 30.04 62.8267 30.0267 63.08 30C63.3467 29.9733 63.5867 29.94 63.8 29.9C64.0267 29.86 64.24 29.82 64.44 29.78V26.34H61.56V24.16ZM79.8117 26.56C79.8117 27.4667 79.6917 28.2667 79.4517 28.96C79.2117 29.6533 78.8651 30.2467 78.4117 30.74C77.9717 31.22 77.4251 31.5867 76.7717 31.84C76.1317 32.08 75.4184 32.2 74.6317 32.2C73.8851 32.2 73.1984 32.08 72.5717 31.84C71.9451 31.5867 71.3984 31.22 70.9317 30.74C70.4784 30.2467 70.1251 29.6533 69.8717 28.96C69.6184 28.2667 69.4917 27.4667 69.4917 26.56C69.4917 25.36 69.6984 24.3467 70.1117 23.52C70.5251 22.68 71.1184 22.0467 71.8917 21.62C72.6784 21.18 73.6051 20.96 74.6717 20.96C75.6851 20.96 76.5717 21.18 77.3317 21.62C78.1051 22.0467 78.7117 22.68 79.1517 23.52C79.5917 24.3467 79.8117 25.36 79.8117 26.56ZM72.0717 26.56C72.0717 27.32 72.1584 27.9733 72.3317 28.52C72.5184 29.0533 72.7984 29.46 73.1717 29.74C73.5584 30.02 74.0517 30.16 74.6517 30.16C75.2651 30.16 75.7584 30.02 76.1317 29.74C76.5184 29.46 76.7984 29.0533 76.9717 28.52C77.1451 27.9733 77.2317 27.32 77.2317 26.56C77.2317 25.7867 77.1384 25.14 76.9517 24.62C76.7784 24.0867 76.4984 23.6867 76.1117 23.42C75.7384 23.14 75.2517 23 74.6517 23C73.7451 23 73.0851 23.3067 72.6717 23.92C72.2717 24.5333 72.0717 25.4133 72.0717 26.56ZM92.0969 26.56C92.0969 27.4667 91.9769 28.2667 91.7369 28.96C91.4969 29.6533 91.1502 30.2467 90.6969 30.74C90.2569 31.22 89.7102 31.5867 89.0569 31.84C88.4169 32.08 87.7035 32.2 86.9169 32.2C86.1702 32.2 85.4835 32.08 84.8569 31.84C84.2302 31.5867 83.6835 31.22 83.2169 30.74C82.7635 30.2467 82.4102 29.6533 82.1569 28.96C81.9035 28.2667 81.7769 27.4667 81.7769 26.56C81.7769 25.36 81.9835 24.3467 82.3969 23.52C82.8102 22.68 83.4035 22.0467 84.1769 21.62C84.9635 21.18 85.8902 20.96 86.9569 20.96C87.9702 20.96 88.8569 21.18 89.6169 21.62C90.3902 22.0467 90.9969 22.68 91.4369 23.52C91.8769 24.3467 92.0969 25.36 92.0969 26.56ZM84.3569 26.56C84.3569 27.32 84.4435 27.9733 84.6169 28.52C84.8035 29.0533 85.0835 29.46 85.4569 29.74C85.8435 30.02 86.3369 30.16 86.9369 30.16C87.5502 30.16 88.0435 30.02 88.4169 29.74C88.8035 29.46 89.0835 29.0533 89.2569 28.52C89.4302 27.9733 89.5169 27.32 89.5169 26.56C89.5169 25.7867 89.4235 25.14 89.2369 24.62C89.0635 24.0867 88.7835 23.6867 88.3969 23.42C88.0235 23.14 87.5369 23 86.9369 23C86.0302 23 85.3702 23.3067 84.9569 23.92C84.5569 24.5333 84.3569 25.4133 84.3569 26.56ZM98.342 20.96C99.022 20.96 99.6354 21.0933 100.182 21.36C100.729 21.6267 101.189 22.0267 101.562 22.56H101.662L101.902 21.16H104.002V32.08C104.002 33.1067 103.809 33.9667 103.422 34.66C103.035 35.3667 102.455 35.9 101.682 36.26C100.909 36.62 99.942 36.8 98.782 36.8C98.0087 36.8 97.2954 36.7467 96.642 36.64C95.9887 36.5467 95.3687 36.38 94.782 36.14V34.06C95.1954 34.2333 95.622 34.38 96.062 34.5C96.5154 34.6333 96.982 34.7333 97.462 34.8C97.942 34.8667 98.4354 34.9 98.942 34.9C99.7687 34.9 100.395 34.6667 100.822 34.2C101.262 33.7333 101.482 33.0667 101.482 32.2V31.92C101.482 31.72 101.489 31.4867 101.502 31.22C101.529 30.9533 101.549 30.74 101.562 30.58H101.482C101.109 31.14 100.655 31.5533 100.122 31.82C99.5887 32.0733 98.9754 32.2 98.282 32.2C96.962 32.2 95.9287 31.7067 95.182 30.72C94.4354 29.7333 94.062 28.36 94.062 26.6C94.062 25.4133 94.2287 24.4 94.562 23.56C94.9087 22.72 95.402 22.08 96.042 21.64C96.682 21.1867 97.4487 20.96 98.342 20.96ZM99.002 23.02C98.4954 23.02 98.062 23.16 97.702 23.44C97.3554 23.7067 97.0887 24.1067 96.902 24.64C96.7287 25.1733 96.642 25.84 96.642 26.64C96.642 27.8133 96.842 28.7 97.242 29.3C97.642 29.9 98.242 30.2 99.042 30.2C99.4954 30.2 99.882 30.1467 100.202 30.04C100.522 29.92 100.782 29.7333 100.982 29.48C101.195 29.2133 101.355 28.88 101.462 28.48C101.569 28.0667 101.622 27.5733 101.622 27V26.62C101.622 25.7533 101.529 25.06 101.342 24.54C101.155 24.0067 100.869 23.62 100.482 23.38C100.109 23.14 99.6154 23.02 99.002 23.02ZM109.742 32H107.222V16.8H109.742V32ZM117.324 20.96C118.297 20.96 119.13 21.16 119.824 21.56C120.53 21.9467 121.077 22.5067 121.464 23.24C121.85 23.96 122.044 24.84 122.044 25.88V27.16H114.884C114.91 28.1467 115.184 28.9133 115.704 29.46C116.224 29.9933 116.944 30.26 117.864 30.26C118.57 30.26 119.197 30.1933 119.744 30.06C120.304 29.9133 120.877 29.7067 121.464 29.44V31.46C120.93 31.7133 120.377 31.9 119.804 32.02C119.23 32.14 118.544 32.2 117.744 32.2C116.69 32.2 115.75 32 114.924 31.6C114.11 31.1867 113.47 30.5667 113.004 29.74C112.55 28.9133 112.324 27.8867 112.324 26.66C112.324 25.42 112.53 24.38 112.944 23.54C113.37 22.6867 113.957 22.0467 114.704 21.62C115.45 21.18 116.324 20.96 117.324 20.96ZM117.324 22.82C116.657 22.82 116.11 23.04 115.684 23.48C115.27 23.9067 115.024 24.5467 114.944 25.4H119.604C119.604 24.8933 119.517 24.4467 119.344 24.06C119.184 23.6733 118.937 23.3733 118.604 23.16C118.27 22.9333 117.844 22.82 117.324 22.82ZM134.28 17.72C136.133 17.72 137.48 18.1067 138.32 18.88C139.173 19.6533 139.6 20.72 139.6 22.08C139.6 22.6933 139.507 23.28 139.32 23.84C139.133 24.3867 138.82 24.88 138.38 25.32C137.94 25.76 137.36 26.1067 136.64 26.36C135.933 26.6133 135.053 26.74 134 26.74H132.58V32H130.02V17.72H134.28ZM134.12 19.84H132.58V24.62H133.74C134.433 24.62 135.02 24.54 135.5 24.38C135.993 24.2067 136.367 23.94 136.62 23.58C136.873 23.22 137 22.7533 137 22.18C137 21.3933 136.767 20.8067 136.3 20.42C135.833 20.0333 135.107 19.84 134.12 19.84ZM144.683 32H142.163V16.8H144.683V32ZM152.225 20.96C153.625 20.96 154.685 21.2667 155.405 21.88C156.138 22.48 156.505 23.4267 156.505 24.72V32H154.725L154.225 30.5H154.145C153.838 30.8867 153.518 31.2133 153.185 31.48C152.865 31.7333 152.492 31.9133 152.065 32.02C151.652 32.14 151.145 32.2 150.545 32.2C149.905 32.2 149.325 32.08 148.805 31.84C148.298 31.6 147.898 31.2333 147.605 30.74C147.312 30.2333 147.165 29.6 147.165 28.84C147.165 27.72 147.572 26.88 148.385 26.32C149.212 25.7467 150.458 25.4333 152.125 25.38L154.005 25.32V24.78C154.005 24.0867 153.838 23.5933 153.505 23.3C153.172 23.0067 152.705 22.86 152.105 22.86C151.558 22.86 151.032 22.94 150.525 23.1C150.018 23.26 149.525 23.4467 149.045 23.66L148.245 21.9C148.778 21.62 149.385 21.3933 150.065 21.22C150.758 21.0467 151.478 20.96 152.225 20.96ZM152.685 26.92C151.578 26.96 150.812 27.1533 150.385 27.5C149.958 27.8333 149.745 28.2867 149.745 28.86C149.745 29.3667 149.898 29.7333 150.205 29.96C150.512 30.1867 150.905 30.3 151.385 30.3C152.118 30.3 152.738 30.0933 153.245 29.68C153.752 29.2533 154.005 28.6267 154.005 27.8V26.88L152.685 26.92ZM158.043 21.16H160.783L162.943 27.28C163.036 27.5467 163.116 27.8067 163.183 28.06C163.263 28.3 163.33 28.5467 163.383 28.8C163.436 29.0533 163.476 29.3067 163.503 29.56H163.583C163.636 29.2267 163.716 28.86 163.823 28.46C163.943 28.06 164.063 27.6667 164.183 27.28L166.263 21.16H168.983L164.363 33.44C164.096 34.1467 163.756 34.7533 163.343 35.26C162.943 35.7667 162.463 36.1467 161.903 36.4C161.356 36.6667 160.736 36.8 160.043 36.8C159.723 36.8 159.436 36.78 159.183 36.74C158.943 36.7133 158.73 36.68 158.543 36.64V34.64C158.69 34.6667 158.863 34.6933 159.063 34.72C159.276 34.7467 159.496 34.76 159.723 34.76C160.136 34.76 160.49 34.6733 160.783 34.5C161.09 34.34 161.343 34.1133 161.543 33.82C161.756 33.5267 161.93 33.2 162.063 32.84L162.383 31.96L158.043 21.16Z" fill="black"/>
<path d="M21.0042 24.0607V12.3124C20.993 11.9744 21.0041 11.636 21.0373 11.2994C21.0365 11.1138 21.0838 10.931 21.1745 10.769C21.2651 10.607 21.3961 10.4711 21.5547 10.3745C21.9511 10.2094 22.1053 10.6608 22.3255 10.881L35.0097 23.8955C35.1215 23.9616 35.2138 24.056 35.2772 24.1693C35.3405 24.2827 35.3728 24.4107 35.3705 24.5406C35.3683 24.6704 35.3317 24.7973 35.2644 24.9083C35.1972 25.0194 35.1017 25.1106 34.9877 25.1728C30.8917 29.2797 26.8178 33.4197 22.7329 37.5376C21.9842 38.2864 21.3345 38.1212 21.0703 37.0752C21.0133 36.7445 20.9948 36.4082 21.0152 36.0732C21.0042 32.0654 21.0042 28.0686 21.0042 24.0607ZM22.6998 10.0002C23.0532 9.99461 23.3969 10.1157 23.6688 10.3415C28.9649 13.3364 34.2389 16.3423 39.535 19.3151C40.1626 19.6675 40.2727 19.9097 39.7002 20.4382C38.6322 21.4402 37.6302 22.5082 36.5952 23.5542C36.331 23.8185 36.1217 23.9836 35.7804 23.6203C31.4423 19.128 27.0967 14.6356 22.7439 10.1433C22.7191 10.0993 22.7041 10.0505 22.6998 10.0002ZM24.3624 37.2183C28.1501 33.3426 31.8386 29.588 35.4831 25.8004C36.0447 25.2278 36.353 25.2278 36.8705 25.8114C37.6135 26.659 38.4 27.4676 39.2267 28.2337C39.7222 28.7072 39.7552 28.9384 39.0836 29.3017C34.7124 31.691 30.3742 34.1244 26.025 36.5357C25.5429 36.9097 24.9683 37.1456 24.3624 37.2183ZM46.813 24.1818C46.8123 24.4177 46.7474 24.6489 46.6252 24.8507C46.503 25.0524 46.3281 25.2171 46.1194 25.3269C44.3797 26.3179 42.64 27.2868 40.9114 28.2777C40.8456 28.3178 40.7726 28.3444 40.6966 28.3561C40.6205 28.3677 40.5429 28.3643 40.4682 28.3459C40.3935 28.3274 40.3232 28.2944 40.2613 28.2487C40.1994 28.203 40.1472 28.1455 40.1076 28.0796C39.1166 27.0446 38.1257 26.0096 37.1127 24.9966C37.0425 24.9512 36.985 24.8887 36.9456 24.8149C36.9061 24.7412 36.886 24.6587 36.8871 24.5752C36.8882 24.4916 36.9105 24.4096 36.9519 24.337C36.9933 24.2643 37.0524 24.2034 37.1237 24.1598C38.2982 22.9927 39.4653 21.8145 40.6251 20.6254C40.6765 20.5524 40.7421 20.4903 40.8178 20.443C40.8935 20.3956 40.978 20.3638 41.0662 20.3494C41.1543 20.3351 41.2445 20.3384 41.3313 20.3594C41.4182 20.3803 41.5 20.4183 41.572 20.4712C43.0254 21.3301 44.4898 22.1559 45.9542 22.9817C46.1929 23.0848 46.3989 23.2511 46.5502 23.4625C46.7015 23.674 46.7924 23.9226 46.813 24.1818Z" fill="#222222"/>
</svg>
